<?xml version="1.0" encoding="UTF-8" standalone="no"?>
<!-- Created with Inkscape (http://www.inkscape.org/) -->

<svg
   version="1.1"
   id="svg1"
   width="198.72"
   height="208.32001"
   viewBox="0 0 198.72 208.32001"
   sodipodi:docname="mint_black.png"
   xmlns:inkscape="http://www.inkscape.org/namespaces/inkscape"
   xmlns:sodipodi="http://sodipodi.sourceforge.net/DTD/sodipodi-0.dtd"
   xmlns="http://www.w3.org/2000/svg"
   xmlns:svg="http://www.w3.org/2000/svg">
  <defs
     id="defs1" />
  <sodipodi:namedview
     id="namedview1"
     pagecolor="#ffffff"
     bordercolor="#000000"
     borderopacity="0.25"
     inkscape:showpageshadow="2"
     inkscape:pageopacity="0.0"
     inkscape:pagecheckerboard="0"
     inkscape:deskcolor="#d1d1d1" />
  <g
     inkscape:groupmode="layer"
     inkscape:label="Image"
     id="g1">
    <path
       style="fill:#ffffff;fill-opacity:1"
       d="m 110.08461,201.60386 c -3.3676,-0.54978 -10.560513,-3.48999 -19.859154,-8.11773 -18.170333,-9.04301 -22.71107,-10.46233 -30.72559,-9.60405 -5.406281,0.57897 -6.055259,0.46554 -6.055259,-1.05833 0,-0.93873 1.944,-4.60427 4.32,-8.14564 2.376,-3.54137 4.32,-6.9117 4.32,-7.48962 0,-0.57792 0.612,-1.05076 1.36,-1.05076 0.748,0 1.504,-0.38903 1.68,-0.86451 0.716838,-1.9366 13.259058,-14.30372 18.595089,-18.33549 3.144625,-2.376 6.583168,-5.11685 7.641206,-6.09076 3.022199,-2.78192 9.843868,-7.34925 10.976678,-7.34925 0.56487,0 1.02703,-0.42978 1.02703,-0.95508 0,-0.52529 1.92201,-1.85853 4.27113,-2.96275 2.34912,-1.10421 4.77407,-2.61367 5.38877,-3.35435 0.61471,-0.74067 1.5007,-1.10994 1.96888,-0.82059 0.46817,0.28935 0.85122,0.0686 0.85122,-0.49057 0,-0.55916 0.67886,-1.01666 1.50857,-1.01666 1.57022,0 4.25143,-2.19686 4.25143,-3.48342 0,-0.40732 -0.5184,-0.22218 -1.152,0.41142 -0.6336,0.6336 -1.9296,1.152 -2.88,1.152 -0.9504,0 -1.728,0.32655 -1.728,0.72566 0,0.39911 -1.404,1.33096 -3.12,2.07078 -1.716,0.73982 -4.416,2.24861 -6,3.35286 -1.584,1.10425 -3.096,2.01682 -3.36,2.02793 -1.10116,0.0463 -6.720003,3.81712 -6.720003,4.50976 0,0.41416 -0.4557,0.75301 -1.01267,0.75301 -2.947612,0 -20.395282,13.74442 -30.116161,23.72403 -3.472444,3.56486 -5.25843,4.7666 -6.20997,4.17852 -1.908388,-1.17945 -2.828444,-7.89429 -3.560083,-25.98255 -0.658878,-16.28939 0.08828,-23.55221 3.000336,-29.16521 1.657683,-3.19519 1.702968,-3.47479 0.562785,-3.47479 -0.47067,0 -1.556044,1.75018 -2.411943,3.88928 -2.091719,5.22772 -3.6577,3.99554 -2.898324,-2.28053 2.096204,-17.324642 7.244515,-36.608042 13.950341,-52.252101 1.025168,-2.39162 1.68142,-4.530923 1.458337,-4.754006 -0.37567,-0.375669 -5.402648,9.878428 -5.402648,11.020393 0,0.281062 -1.296,3.254012 -2.88,6.606552 -1.584,3.35254 -2.886287,6.63438 -2.893971,7.29297 -0.0077,0.65859 -0.637622,2.98719 -1.399862,5.17465 -4.682094,13.43662 -8.121282,32.400622 -9.026448,49.772662 -0.51548,9.89315 -0.834483,11.55465 -2.271078,11.82872 -2.000879,0.38174 -13.835929,-9.005 -23.324041,-18.499 -7.805504,-7.81034 -12.4035539,-16.27982 -13.4324489,-24.742182 -0.953162,-7.83949 -0.143798,-10.33741 3.3494819,-10.33741 1.542779,0 3.072044,0.432 3.398366,0.96 1.641988,2.65679 2.4,0.1248 2.4,-8.01675 0,-4.93721 0.468107,-10.31956 1.040238,-11.96077 1.119775,-3.21219 4.255149,-4.8711 5.9684,-3.15784 2.324,2.324 3.343559,0.88328 4.399586,-6.216951 0.594892,-3.99977 1.523876,-8.098669 2.064409,-9.108665 1.266454,-2.36639 5.316583,-3.395041 7.203034,-1.829426 1.764204,1.464159 1.61244,1.671556 3.627768,-4.957629 1.775432,-5.840073 4.811618,-10.431972 6.897672,-10.431972 0.715963,0 1.918963,0.617212 2.673332,1.371581 1.188775,1.188775 1.726615,0.602556 4.035366,-4.398353 2.792325,-6.048359 6.25723,-8.870195 8.337402,-6.790023 0.793499,0.793499 1.800737,0.07344 3.845201,-2.748857 3.278845,-4.526313 6.806604,-6.491212 8.753421,-4.875498 1.016316,0.843468 1.767513,0.452421 3.417169,-1.778858 3.324373,-4.4964564 6.802223,-3.6052484 8.160627,2.09118 0.458714,1.923601 1.061605,2.432648 2.450847,2.069353 2.418845,-0.632542 4.488029,2.674263 5.305099,8.47819 0.52219,3.709291 0.9242,4.381176 2.39177,3.997399 2.853213,-0.74613 4.868663,3.193782 4.868663,9.517492 0,5.199983 0.14256,5.546395 2.28245,5.546395 3.85719,0 4.6678,2.078579 4.29696,11.018284 -0.33996,8.195158 -0.13973,9.038038 1.70806,7.190248 1.49562,-1.49562 4.13277,-0.0609 4.80403,2.61362 0.72437,2.88613 -0.29624,12.31501 -1.59588,14.7434 -0.83871,1.56714 -0.48882,1.79656 3.14025,2.05905 3.20144,0.23156 4.29161,0.77683 5.04413,2.52293 1.13803,2.64061 3.23741,2.48182 10.67162,-0.80716 5.5092,-2.43733 9.85747,-2.05187 10.64071,0.94327 0.49591,1.89636 2.57938,1.90249 7.52509,0.0221 4.00569,-1.52296 7.89326,-1.11164 9.9053,1.04803 1.57483,1.69039 2.52824,1.89322 6.2651,1.33284 5.84409,-0.87638 9.23218,0.0234 9.23218,2.45165 0,1.56865 0.65193,1.90171 3.72245,1.90171 5.11985,0 6.61263,1.91381 4.99092,6.39857 -0.89253,2.468252 -0.93883,3.679962 -0.17,4.448802 1.74805,1.74804 1.19838,5.58555 -1.26211,8.81142 -2.64926,3.47336 -3.0904,5.08009 -2.04914,7.46335 1.20464,2.75719 -0.14786,5.7358 -4.77051,10.50612 -4.15905,4.2919 -4.27496,4.55844 -2.41516,5.55378 3.49438,1.87014 2.36927,5.08917 -3.85329,11.02448 -5.33775,5.09136 -5.68673,5.6715 -4.32,7.18172 3.67342,4.05908 1.12033,7.76788 -9.70002,14.09101 -3.50188,2.04641 -5.71762,3.84883 -4.92386,4.00538 0.79376,0.15655 1.97543,1.45255 2.62593,2.88 1.10455,2.4238 0.9454,2.80055 -2.40756,5.69927 -3.33419,2.88249 -12.26894,6.9761 -15.22611,6.9761 -0.70755,0 -1.80024,0.61909 -2.42822,1.37575 -0.89577,1.07933 -0.80052,1.89657 0.44206,3.793 2.16976,3.31145 1.09022,5.89432 -3.17159,7.58822 -4.72265,1.87707 -15.71742,2.66116 -22.28379,1.58916 z m 16.38038,-82.82976 c -0.73879,-0.73879 -1.46898,-0.5992 -2.55698,0.4888 -1.39052,1.39052 -1.30063,1.4804 1.03409,1.03409 1.82679,-0.34921 2.26167,-0.7841 1.52289,-1.52289 z m 5.35183,-1.88859 c 0.36729,-0.36728 -0.0267,-0.66779 -0.87555,-0.66779 -0.84884,0 -1.7869,0.39408 -2.08458,0.87573 -0.61422,0.99383 1.93762,0.81458 2.96013,-0.20794 z m 5.84779,-2.20779 c -0.319,-0.319 -1.147,-0.3531 -1.84,-0.0758 -0.76582,0.30646 -0.53834,0.53394 0.58,0.58 1.012,0.0417 1.579,-0.18521 1.26,-0.50421 z M 82.724608,95.001088 c 0,-0.4294 0.864,-1.43358 1.92,-2.23151 1.056,-0.79794 1.413662,-1.46454 0.794806,-1.48133 -0.618857,-0.0168 -2.626292,1.72317 -4.460967,3.86657 -2.200267,2.57052 -3.507078,3.46918 -3.839017,2.64 -0.276784,-0.6914 -0.537349,0.21651 -0.579033,2.01758 l -0.07579,3.274682 3.12,-3.652632 c 1.716,-2.00895 3.12,-4.00396 3.120001,-4.43336 z m -17.320997,4.00297 c 0.303773,-0.49152 0.158536,-1.13704 -0.322751,-1.43449 -0.481286,-0.29745 -1.122775,0.1047 -1.42553,0.89367 -0.596831,1.555312 0.845529,2.001502 1.748281,0.54082 z m 2.440996,-2.94634 c 0,-0.528 -0.432,-0.96 -0.96,-0.96 -0.528,0 -0.96,0.432 -0.96,0.96 0,0.528 0.432,0.96 0.96,0.96 0.528,0 0.96,-0.432 0.96,-0.96 z m 8.027162,-1.44 c -0.303919,-0.792 -0.991257,-1.44 -1.527418,-1.44 -0.561892,0 -0.46859,0.60999 0.220256,1.44 0.657302,0.792 1.34464,1.44 1.527418,1.44 0.182778,0 0.08366,-0.648 -0.220256,-1.44 z m -2.747162,-2.4 c 0.326322,-0.528 -0.105678,-0.96 -0.96,-0.96 -0.854321,0 -1.286321,0.432 -0.96,0.96 0.326322,0.528 0.758322,0.96 0.96,0.96 0.201679,0 0.633679,-0.432 0.96,-0.96 z m 31.634713,-2.44211 2.63508,-2.4421 -2.4347,0.61107 c -2.19721,0.55146 -2.49782,0.27463 -3.08174,-2.8379 -0.74196,-3.955 -0.49817,-3.81567 -3.935903,-2.24933 l -2.6329,1.19962 2.82773,0.4938 c 1.945973,0.33982 2.870743,1.08831 2.965673,2.40037 0.0759,1.04862 0.18388,2.66258 0.24,3.58658 0.13197,2.17261 0.28761,2.1379 3.41676,-0.76211 z m 7.24529,-4.75789 c 1.92605,-1.10103 2.0547,-1.37868 0.65143,-1.40598 -0.96171,-0.0187 -2.39657,0.61398 -3.18857,1.40598 -1.80143,1.80143 -0.61413,1.80143 2.53714,0 z"
       id="path1" />
  </g>
</svg>
